<svg width="14" height="15" viewBox="0 0 14 15" fill="none" xmlns="http://www.w3.org/2000/svg">
<path d="M0 4.5V2.23517e-08H1V4.5C1 4.89782 1.15804 5.27936 1.43934 5.56066C1.72064 5.84196 2.10218 6 2.5 6C2.89782 6 3.27936 5.84196 3.56066 5.56066C3.84196 5.27936 4 4.89782 4 4.5V1.5C4 1.36739 3.94732 1.24021 3.85355 1.14645C3.75979 1.05268 3.63261 1 3.5 1C3.36739 1 3.24021 1.05268 3.14645 1.14645C3.05268 1.24021 3 1.36739 3 1.5V5H2V1.5C2 1.30302 2.0388 1.10796 2.11418 0.925975C2.18956 0.743986 2.30005 0.578628 2.43934 0.43934C2.57863 0.300052 2.74399 0.189563 2.92597 0.114181C3.10796 0.0387986 3.30302 0 3.5 0C3.69698 0 3.89204 0.0387986 4.07403 0.114181C4.25601 0.189563 4.42137 0.300052 4.56066 0.43934C4.69995 0.578628 4.81044 0.743986 4.88582 0.925975C4.9612 1.10796 5 1.30302 5 1.5V4.5C5 5.16304 4.73661 5.79893 4.26777 6.26777C3.79893 6.73661 3.16304 7 2.5 7C1.83696 7 1.20107 6.73661 0.732233 6.26777C0.263392 5.79893 0 5.16304 0 4.5Z" fill="black"/>
<path fill-rule="evenodd" clip-rule="evenodd" d="M12.5 0H6V4.5C6 5.42826 5.63125 6.3185 4.97487 6.97487C4.3185 7.63125 3.42826 8 2.5 8H1V13.5C1 13.8978 1.15804 14.2794 1.43934 14.5607C1.72064 14.842 2.10218 15 2.5 15H12.5C12.8978 15 13.2794 14.842 13.5607 14.5607C13.842 14.2794 14 13.8978 14 13.5V1.5C14 1.10218 13.842 0.720644 13.5607 0.43934C13.2794 0.158035 12.8978 0 12.5 0ZM11 4H7V5H11V4ZM11 7H7V8H11V7ZM4 10H11V11H4V10Z" fill="black"/>
</svg>
