<svg width="39" height="39" viewBox="0 0 39 39" fill="none" xmlns="http://www.w3.org/2000/svg">
<path d="M19.5 0C8.63571 0 0 8.63571 0 19.5C0 30.3643 8.63571 39 19.5 39C30.3643 39 39 30.3643 39 19.5C39 8.63571 30.3643 0 19.5 0ZM19.5 36.2143C10.3071 36.2143 2.78571 28.6929 2.78571 19.5C2.78571 10.3071 10.3071 2.78571 19.5 2.78571C28.6929 2.78571 36.2143 10.3071 36.2143 19.5C36.2143 28.6929 28.6929 36.2143 19.5 36.2143Z" fill="#3D729A"/>
<path d="M27.0214 29.25L19.5 21.7286L11.9786 29.25L9.75 27.0214L17.2714 19.5L9.75 11.9786L11.9786 9.75L19.5 17.2714L27.0214 9.75L29.25 11.9786L21.7286 19.5L29.25 27.0214L27.0214 29.25Z" fill="#3D729A"/>
</svg>
