<svg width="28" height="23" viewBox="0 0 28 23" fill="none" xmlns="http://www.w3.org/2000/svg">
<path d="M5.6 16.8H9.905L16.87 9.8C17.08 9.59 17.2377 9.3506 17.3432 9.0818C17.4487 8.813 17.5009 8.55073 17.5 8.295C17.4991 8.03926 17.4468 7.78867 17.3432 7.5432C17.2396 7.29773 17.0935 7.07 16.905 6.86L15.61 5.53C15.4 5.32 15.1667 5.16273 14.91 5.0582C14.6533 4.95367 14.385 4.90093 14.105 4.9C13.8483 4.9 13.5917 4.95273 13.335 5.0582C13.0783 5.16367 12.845 5.32093 12.635 5.53L5.6 12.495V16.8ZM14.07 9.66L12.74 8.365L14.105 7L15.4 8.33L14.07 9.66ZM12.88 16.8H22.4V14H15.68L12.88 16.8ZM0 22.4V2.8C0 2.03 0.2744 1.37107 0.8232 0.8232C1.372 0.275333 2.03093 0.000933333 2.8 0H25.2C25.97 0 26.6294 0.2744 27.1782 0.8232C27.727 1.372 28.0009 2.03093 28 2.8V19.6C28 20.37 27.7261 21.0294 27.1782 21.5782C26.6303 22.127 25.9709 22.4009 25.2 22.4H5.6H0Z" fill="white"/>
</svg>
