<svg width="422" height="190" viewBox="0 0 422 190" fill="none" xmlns="http://www.w3.org/2000/svg">
<rect width="422" height="190" rx="20" fill="#3F3E3E"/>
<rect x="21.8008" y="51" width="379.956" height="73" rx="10" fill="#4F4E4E"/>
<rect x="21.8008" y="134" width="379.956" height="34" rx="10" fill="#3D729A"/>
<path d="M192.095 151.256C192.5 151.32 192.868 151.485 193.199 151.752C193.54 152.019 193.807 152.349 193.999 152.744C194.201 153.139 194.303 153.56 194.303 154.008C194.303 154.573 194.159 155.085 193.871 155.544C193.583 155.992 193.161 156.349 192.607 156.616C192.063 156.872 191.417 157 190.671 157H186.511V145.848H190.511C191.268 145.848 191.913 145.976 192.447 146.232C192.98 146.477 193.38 146.813 193.647 147.24C193.913 147.667 194.047 148.147 194.047 148.68C194.047 149.341 193.865 149.891 193.503 150.328C193.151 150.755 192.681 151.064 192.095 151.256ZM187.967 150.664H190.415C191.097 150.664 191.625 150.504 191.999 150.184C192.372 149.864 192.559 149.421 192.559 148.856C192.559 148.291 192.372 147.848 191.999 147.528C191.625 147.208 191.087 147.048 190.383 147.048H187.967V150.664ZM190.543 155.8C191.268 155.8 191.833 155.629 192.239 155.288C192.644 154.947 192.847 154.472 192.847 153.864C192.847 153.245 192.633 152.76 192.207 152.408C191.78 152.045 191.209 151.864 190.495 151.864H187.967V155.8H190.543ZM204.099 148.232V157H202.643V155.704C202.366 156.152 201.977 156.504 201.475 156.76C200.985 157.005 200.441 157.128 199.843 157.128C199.161 157.128 198.547 156.989 198.003 156.712C197.459 156.424 197.027 155.997 196.707 155.432C196.398 154.867 196.243 154.179 196.243 153.368V148.232H197.683V153.176C197.683 154.04 197.902 154.707 198.339 155.176C198.777 155.635 199.374 155.864 200.131 155.864C200.91 155.864 201.523 155.624 201.971 155.144C202.419 154.664 202.643 153.965 202.643 153.048V148.232H204.099ZM208.334 149.432V154.6C208.334 155.027 208.424 155.331 208.606 155.512C208.787 155.683 209.102 155.768 209.55 155.768H210.622V157H209.31C208.499 157 207.891 156.813 207.486 156.44C207.08 156.067 206.878 155.453 206.878 154.6V149.432H205.742V148.232H206.878V146.024H208.334V148.232H210.622V149.432H208.334ZM214.162 149.432V154.6C214.162 155.027 214.252 155.331 214.434 155.512C214.615 155.683 214.93 155.768 215.378 155.768H216.45V157H215.138C214.327 157 213.719 156.813 213.314 156.44C212.908 156.067 212.706 155.453 212.706 154.6V149.432H211.57V148.232H212.706V146.024H214.162V148.232H216.45V149.432H214.162ZM222.038 157.144C221.217 157.144 220.47 156.957 219.798 156.584C219.137 156.211 218.614 155.683 218.23 155C217.857 154.307 217.67 153.507 217.67 152.6C217.67 151.704 217.862 150.915 218.246 150.232C218.641 149.539 219.174 149.011 219.846 148.648C220.518 148.275 221.27 148.088 222.102 148.088C222.934 148.088 223.686 148.275 224.358 148.648C225.03 149.011 225.558 149.533 225.942 150.216C226.337 150.899 226.534 151.693 226.534 152.6C226.534 153.507 226.331 154.307 225.926 155C225.531 155.683 224.993 156.211 224.31 156.584C223.627 156.957 222.87 157.144 222.038 157.144ZM222.038 155.864C222.561 155.864 223.051 155.741 223.51 155.496C223.969 155.251 224.337 154.883 224.614 154.392C224.902 153.901 225.046 153.304 225.046 152.6C225.046 151.896 224.907 151.299 224.63 150.808C224.353 150.317 223.99 149.955 223.542 149.72C223.094 149.475 222.609 149.352 222.086 149.352C221.553 149.352 221.062 149.475 220.614 149.72C220.177 149.955 219.825 150.317 219.558 150.808C219.291 151.299 219.158 151.896 219.158 152.6C219.158 153.315 219.286 153.917 219.542 154.408C219.809 154.899 220.161 155.267 220.598 155.512C221.035 155.747 221.515 155.864 222.038 155.864ZM232.72 148.072C233.787 148.072 234.651 148.397 235.312 149.048C235.974 149.688 236.304 150.616 236.304 151.832V157H234.864V152.04C234.864 151.165 234.646 150.499 234.208 150.04C233.771 149.571 233.174 149.336 232.416 149.336C231.648 149.336 231.035 149.576 230.576 150.056C230.128 150.536 229.904 151.235 229.904 152.152V157H228.448V148.232H229.904V149.48C230.192 149.032 230.582 148.685 231.072 148.44C231.574 148.195 232.123 148.072 232.72 148.072Z" fill="white"/>
<path d="M0 10C0 4.47715 4.47715 0 10 0H412C417.523 0 422 4.47715 422 10V41H0V10Z" fill="#575656"/>
<path d="M28.0619 15.848C29.2779 15.848 30.3286 16.0773 31.2139 16.536C32.1099 16.984 32.7926 17.6293 33.2619 18.472C33.7419 19.3147 33.9819 20.3067 33.9819 21.448C33.9819 22.5893 33.7419 23.5813 33.2619 24.424C32.7926 25.256 32.1099 25.896 31.2139 26.344C30.3286 26.7813 29.2779 27 28.0619 27H24.5899V15.848H28.0619ZM28.0619 25.8C29.5019 25.8 30.6006 25.4213 31.3579 24.664C32.1152 23.896 32.4939 22.824 32.4939 21.448C32.4939 20.0613 32.1099 18.9787 31.3419 18.2C30.5846 17.4213 29.4912 17.032 28.0619 17.032H26.0459V25.8H28.0619ZM35.3584 22.584C35.3584 21.688 35.5397 20.904 35.9024 20.232C36.2651 19.5493 36.7611 19.0213 37.3904 18.648C38.0304 18.2747 38.7397 18.088 39.5184 18.088C40.2864 18.088 40.9531 18.2533 41.5184 18.584C42.0837 18.9147 42.5051 19.3307 42.7824 19.832V18.232H44.2544V27H42.7824V25.368C42.4944 25.88 42.0624 26.3067 41.4864 26.648C40.9211 26.9787 40.2597 27.144 39.5024 27.144C38.7237 27.144 38.0197 26.952 37.3904 26.568C36.7611 26.184 36.2651 25.6453 35.9024 24.952C35.5397 24.2587 35.3584 23.4693 35.3584 22.584ZM42.7824 22.6C42.7824 21.9387 42.6491 21.3627 42.3824 20.872C42.1157 20.3813 41.7531 20.008 41.2944 19.752C40.8464 19.4853 40.3504 19.352 39.8064 19.352C39.2624 19.352 38.7664 19.48 38.3184 19.736C37.8704 19.992 37.5131 20.3653 37.2464 20.856C36.9797 21.3467 36.8464 21.9227 36.8464 22.584C36.8464 23.256 36.9797 23.8427 37.2464 24.344C37.5131 24.8347 37.8704 25.2133 38.3184 25.48C38.7664 25.736 39.2624 25.864 39.8064 25.864C40.3504 25.864 40.8464 25.736 41.2944 25.48C41.7531 25.2133 42.1157 24.8347 42.3824 24.344C42.6491 23.8427 42.7824 23.2613 42.7824 22.6ZM48.1709 19.656C48.4269 19.1547 48.7896 18.7653 49.2589 18.488C49.7389 18.2107 50.3202 18.072 51.0029 18.072V19.576H50.6189C48.9869 19.576 48.1709 20.4613 48.1709 22.232V27H46.7149V18.232H48.1709V19.656ZM57.5797 27L54.1397 23.128V27H52.6837V15.16H54.1397V22.12L57.5157 18.232H59.5477L55.4197 22.6L59.5637 27H57.5797ZM76.4957 15.928V27H75.0397V18.744L71.3597 27H70.3357L66.6397 18.728V27H65.1837V15.928H66.7517L70.8477 25.08L74.9437 15.928H76.4957ZM82.7889 27.144C81.9676 27.144 81.2209 26.9573 80.5489 26.584C79.8876 26.2107 79.3649 25.6827 78.9809 25C78.6076 24.3067 78.4209 23.5067 78.4209 22.6C78.4209 21.704 78.6129 20.9147 78.9969 20.232C79.3916 19.5387 79.9249 19.0107 80.5969 18.648C81.2689 18.2747 82.0209 18.088 82.8529 18.088C83.6849 18.088 84.4369 18.2747 85.1089 18.648C85.7809 19.0107 86.3089 19.5333 86.6929 20.216C87.0876 20.8987 87.2849 21.6933 87.2849 22.6C87.2849 23.5067 87.0822 24.3067 86.6769 25C86.2822 25.6827 85.7436 26.2107 85.0609 26.584C84.3782 26.9573 83.6209 27.144 82.7889 27.144ZM82.7889 25.864C83.3116 25.864 83.8022 25.7413 84.2609 25.496C84.7196 25.2507 85.0876 24.8827 85.3649 24.392C85.6529 23.9013 85.7969 23.304 85.7969 22.6C85.7969 21.896 85.6582 21.2987 85.3809 20.808C85.1036 20.3173 84.7409 19.9547 84.2929 19.72C83.8449 19.4747 83.3596 19.352 82.8369 19.352C82.3036 19.352 81.8129 19.4747 81.3649 19.72C80.9276 19.9547 80.5756 20.3173 80.3089 20.808C80.0422 21.2987 79.9089 21.896 79.9089 22.6C79.9089 23.3147 80.0369 23.9173 80.2929 24.408C80.5596 24.8987 80.9116 25.2667 81.3489 25.512C81.7862 25.7467 82.2662 25.864 82.7889 25.864ZM88.6553 22.584C88.6553 21.688 88.8366 20.904 89.1993 20.232C89.562 19.5493 90.058 19.0213 90.6873 18.648C91.3273 18.2747 92.042 18.088 92.8313 18.088C93.514 18.088 94.1486 18.248 94.7353 18.568C95.322 18.8773 95.77 19.288 96.0793 19.8V15.16H97.5513V27H96.0793V25.352C95.7913 25.8747 95.3646 26.3067 94.7993 26.648C94.234 26.9787 93.5726 27.144 92.8153 27.144C92.0366 27.144 91.3273 26.952 90.6873 26.568C90.058 26.184 89.562 25.6453 89.1993 24.952C88.8366 24.2587 88.6553 23.4693 88.6553 22.584ZM96.0793 22.6C96.0793 21.9387 95.946 21.3627 95.6793 20.872C95.4126 20.3813 95.05 20.008 94.5913 19.752C94.1433 19.4853 93.6473 19.352 93.1033 19.352C92.5593 19.352 92.0633 19.48 91.6153 19.736C91.1673 19.992 90.81 20.3653 90.5433 20.856C90.2766 21.3467 90.1433 21.9227 90.1433 22.584C90.1433 23.256 90.2766 23.8427 90.5433 24.344C90.81 24.8347 91.1673 25.2133 91.6153 25.48C92.0633 25.736 92.5593 25.864 93.1033 25.864C93.6473 25.864 94.1433 25.736 94.5913 25.48C95.05 25.2133 95.4126 24.8347 95.6793 24.344C95.946 23.8427 96.0793 23.2613 96.0793 22.6ZM108.012 22.28C108.012 22.5573 107.996 22.8507 107.964 23.16H100.956C101.009 24.024 101.302 24.7013 101.836 25.192C102.38 25.672 103.036 25.912 103.804 25.912C104.433 25.912 104.956 25.768 105.372 25.48C105.798 25.1813 106.097 24.7867 106.268 24.296H107.836C107.601 25.1387 107.132 25.8267 106.428 26.36C105.724 26.8827 104.849 27.144 103.804 27.144C102.972 27.144 102.225 26.9573 101.564 26.584C100.913 26.2107 100.401 25.6827 100.028 25C99.6545 24.3067 99.4678 23.5067 99.4678 22.6C99.4678 21.6933 99.6491 20.8987 100.012 20.216C100.374 19.5333 100.881 19.0107 101.532 18.648C102.193 18.2747 102.95 18.088 103.804 18.088C104.636 18.088 105.372 18.2693 106.012 18.632C106.652 18.9947 107.142 19.496 107.484 20.136C107.836 20.7653 108.012 21.48 108.012 22.28ZM106.508 21.976C106.508 21.4213 106.385 20.9467 106.14 20.552C105.894 20.1467 105.558 19.8427 105.132 19.64C104.716 19.4267 104.252 19.32 103.74 19.32C103.004 19.32 102.374 19.5547 101.852 20.024C101.34 20.4933 101.046 21.144 100.972 21.976H106.508Z" fill="white"/>
</svg>
