<svg width="28" height="28" viewBox="0 0 28 28" fill="none" xmlns="http://www.w3.org/2000/svg">
<path d="M12.5562 3.48921V9.06045C12.5562 9.52176 12.4651 9.97852 12.288 10.4045C12.111 10.8305 11.8515 11.2174 11.5244 11.5429C11.1974 11.8685 10.8093 12.1262 10.3823 12.3015C9.95539 12.4767 9.49802 12.5659 9.03648 12.564H3.49109C3.03079 12.5668 2.57467 12.4767 2.15007 12.299C1.72547 12.1214 1.34113 11.8599 1.02008 11.5302C0.694133 11.2071 0.43601 10.8222 0.260856 10.3981C0.0857009 9.97404 -0.0029591 9.51925 7.53373e-05 9.06045V3.50357C6.75504e-05 2.57685 0.36741 1.68787 1.02169 1.03123C1.67597 0.374599 2.56389 0.00379804 3.49109 0H9.05085C9.51066 0.000441557 9.96582 0.0920441 10.39 0.269504C10.8141 0.446964 11.1988 0.706756 11.5218 1.03384C11.8487 1.35402 12.1084 1.73602 12.286 2.15758C12.4636 2.57913 12.5555 3.03181 12.5562 3.48921ZM28 3.50357V9.06045C27.9925 9.98488 27.6228 10.8695 26.9701 11.5246C26.3174 12.1796 25.4338 12.5528 24.509 12.564H18.9349C18.0056 12.5583 17.1148 12.1929 16.4495 11.5445C16.1244 11.2179 15.867 10.8303 15.6919 10.404C15.5169 9.97778 15.4277 9.52121 15.4295 9.06045V3.50357C15.4283 3.04375 15.5192 2.58835 15.6969 2.1642C15.8745 1.74004 16.1353 1.35571 16.4639 1.03384C16.7869 0.706756 17.1716 0.446964 17.5957 0.269504C18.0199 0.0920441 18.475 0.000441557 18.9349 0H24.4946C25.422 0.00750549 26.3092 0.37904 26.965 1.03447C27.6208 1.68989 27.9925 2.57668 28 3.50357ZM28 18.9394V24.4962C27.9925 25.4207 27.6228 26.3053 26.9701 26.9604C26.3174 27.6154 25.4338 27.9886 24.509 27.9998H18.9349C17.9997 28.0093 17.0978 27.6539 16.4208 27.0091C16.0944 26.6833 15.8361 26.2959 15.661 25.8695C15.4859 25.443 15.3974 24.9859 15.4008 24.525V18.9681C15.3996 18.5083 15.4905 18.0529 15.6682 17.6287C15.8458 17.2046 16.1066 16.8202 16.4351 16.4984C16.7581 16.1713 17.1429 15.9115 17.567 15.734C17.9912 15.5566 18.4463 15.465 18.9061 15.4645H24.4659C25.3932 15.472 26.2805 15.8436 26.9363 16.499C27.592 17.1544 27.9638 18.0412 27.9713 18.9681L28 18.9394ZM12.5562 18.9537V24.5106C12.5449 25.4375 12.1696 26.3227 11.5111 26.9755C10.8527 27.6282 9.96387 27.9961 9.03648 27.9998H3.49109C3.03211 28.0017 2.5773 27.9128 2.15289 27.7381C1.72848 27.5634 1.34288 27.3065 1.01833 26.9821C0.693782 26.6577 0.436708 26.2723 0.261942 25.8481C0.087175 25.4239 -0.00182522 24.9693 7.53373e-05 24.5106V18.9537C0.00377639 18.0268 0.371864 17.1385 1.02494 16.4804C1.67802 15.8223 2.56375 15.4471 3.49109 15.4358H9.05085C9.98208 15.4453 10.8732 15.816 11.5362 16.4696C12.1915 17.1303 12.5582 18.0235 12.5562 18.9537Z" fill="white"/>
</svg>
