<svg width="19" height="5" viewBox="0 0 19 5" fill="none" xmlns="http://www.w3.org/2000/svg">
<path d="M16.8572 4.28707C16.5757 4.28716 16.2969 4.23181 16.0368 4.12417C15.7767 4.01653 15.5404 3.85871 15.3412 3.65973C15.1421 3.46075 14.9842 3.2245 14.8764 2.96447C14.7686 2.70444 14.713 2.42572 14.7129 2.14423C14.7128 1.86273 14.7682 1.58398 14.8758 1.32388C14.9835 1.06378 15.1413 0.827424 15.3403 0.628314C15.5392 0.429204 15.7755 0.271237 16.0355 0.163431C16.2956 0.0556248 16.5743 9.04238e-05 16.8558 1.70151e-08C17.4243 -0.000182568 17.9696 0.225479 18.3717 0.627341C18.7738 1.0292 18.9998 1.57435 19 2.14285C19.0002 2.71135 18.7745 3.25664 18.3727 3.65876C17.9708 4.06088 17.4257 4.28689 16.8572 4.28707Z" fill="#3D729A"/>
<path d="M7.35835 2.1448C7.35835 3.32826 8.31773 4.28765 9.50119 4.28765C10.6847 4.28765 11.644 3.32826 11.644 2.1448C11.644 0.961338 10.6847 0.00195308 9.50119 0.00195303C8.31773 0.00195298 7.35835 0.961338 7.35835 2.1448Z" fill="#3D729A"/>
<path d="M-5.20689e-05 2.1448C-5.21206e-05 3.32826 0.959334 4.28765 2.1428 4.28765C3.32626 4.28765 4.28564 3.32826 4.28564 2.1448C4.28564 0.961338 3.32626 0.00195308 2.1428 0.00195303C0.959335 0.00195298 -5.20172e-05 0.961338 -5.20689e-05 2.1448Z" fill="#3D729A"/>
</svg>
