<svg width="429" height="198" viewBox="0 0 429 198" fill="none" xmlns="http://www.w3.org/2000/svg">
<g filter="url(#filter0_d_665_607)">
<rect x="4" width="421" height="190" rx="20" fill="white"/>
<path d="M4 10C4 4.47715 8.47715 0 14 0H415C420.523 0 425 4.47715 425 10V41H4V10Z" fill="#E3E3E3"/>
</g>
<rect x="25.749" y="51" width="379.055" height="73" rx="10" fill="#F2F2F2"/>
<rect x="25.749" y="134" width="379.055" height="34" rx="10" fill="#3D729A"/>
<path d="M195.593 151.256C195.998 151.32 196.366 151.485 196.697 151.752C197.038 152.019 197.305 152.349 197.497 152.744C197.7 153.139 197.801 153.56 197.801 154.008C197.801 154.573 197.657 155.085 197.369 155.544C197.081 155.992 196.66 156.349 196.105 156.616C195.561 156.872 194.916 157 194.169 157H190.009V145.848H194.009C194.766 145.848 195.412 145.976 195.945 146.232C196.478 146.477 196.878 146.813 197.145 147.24C197.412 147.667 197.545 148.147 197.545 148.68C197.545 149.341 197.364 149.891 197.001 150.328C196.649 150.755 196.18 151.064 195.593 151.256ZM191.465 150.664H193.913C194.596 150.664 195.124 150.504 195.497 150.184C195.87 149.864 196.057 149.421 196.057 148.856C196.057 148.291 195.87 147.848 195.497 147.528C195.124 147.208 194.585 147.048 193.881 147.048H191.465V150.664ZM194.041 155.8C194.766 155.8 195.332 155.629 195.737 155.288C196.142 154.947 196.345 154.472 196.345 153.864C196.345 153.245 196.132 152.76 195.705 152.408C195.278 152.045 194.708 151.864 193.993 151.864H191.465V155.8H194.041ZM207.597 148.232V157H206.141V155.704C205.864 156.152 205.475 156.504 204.973 156.76C204.483 157.005 203.939 157.128 203.341 157.128C202.659 157.128 202.045 156.989 201.501 156.712C200.957 156.424 200.525 155.997 200.205 155.432C199.896 154.867 199.741 154.179 199.741 153.368V148.232H201.181V153.176C201.181 154.04 201.4 154.707 201.837 155.176C202.275 155.635 202.872 155.864 203.629 155.864C204.408 155.864 205.021 155.624 205.469 155.144C205.917 154.664 206.141 153.965 206.141 153.048V148.232H207.597ZM211.832 149.432V154.6C211.832 155.027 211.922 155.331 212.104 155.512C212.285 155.683 212.6 155.768 213.048 155.768H214.12V157H212.808C211.997 157 211.389 156.813 210.984 156.44C210.578 156.067 210.376 155.453 210.376 154.6V149.432H209.24V148.232H210.376V146.024H211.832V148.232H214.12V149.432H211.832ZM217.66 149.432V154.6C217.66 155.027 217.751 155.331 217.932 155.512C218.113 155.683 218.428 155.768 218.876 155.768H219.948V157H218.636C217.825 157 217.217 156.813 216.812 156.44C216.407 156.067 216.204 155.453 216.204 154.6V149.432H215.068V148.232H216.204V146.024H217.66V148.232H219.948V149.432H217.66ZM225.536 157.144C224.715 157.144 223.968 156.957 223.296 156.584C222.635 156.211 222.112 155.683 221.728 155C221.355 154.307 221.168 153.507 221.168 152.6C221.168 151.704 221.36 150.915 221.744 150.232C222.139 149.539 222.672 149.011 223.344 148.648C224.016 148.275 224.768 148.088 225.6 148.088C226.432 148.088 227.184 148.275 227.856 148.648C228.528 149.011 229.056 149.533 229.44 150.216C229.835 150.899 230.032 151.693 230.032 152.6C230.032 153.507 229.829 154.307 229.424 155C229.029 155.683 228.491 156.211 227.808 156.584C227.125 156.957 226.368 157.144 225.536 157.144ZM225.536 155.864C226.059 155.864 226.549 155.741 227.008 155.496C227.467 155.251 227.835 154.883 228.112 154.392C228.4 153.901 228.544 153.304 228.544 152.6C228.544 151.896 228.405 151.299 228.128 150.808C227.851 150.317 227.488 149.955 227.04 149.72C226.592 149.475 226.107 149.352 225.584 149.352C225.051 149.352 224.56 149.475 224.112 149.72C223.675 149.955 223.323 150.317 223.056 150.808C222.789 151.299 222.656 151.896 222.656 152.6C222.656 153.315 222.784 153.917 223.04 154.408C223.307 154.899 223.659 155.267 224.096 155.512C224.533 155.747 225.013 155.864 225.536 155.864ZM236.218 148.072C237.285 148.072 238.149 148.397 238.81 149.048C239.472 149.688 239.802 150.616 239.802 151.832V157H238.362V152.04C238.362 151.165 238.144 150.499 237.706 150.04C237.269 149.571 236.672 149.336 235.914 149.336C235.146 149.336 234.533 149.576 234.074 150.056C233.626 150.536 233.402 151.235 233.402 152.152V157H231.946V148.232H233.402V149.48C233.69 149.032 234.08 148.685 234.57 148.44C235.072 148.195 235.621 148.072 236.218 148.072Z" fill="white"/>
<path d="M29.9907 25.816H33.8947V27H28.5347V15.848H29.9907V25.816ZM36.193 16.808C35.9157 16.808 35.681 16.712 35.489 16.52C35.297 16.328 35.201 16.0933 35.201 15.816C35.201 15.5387 35.297 15.304 35.489 15.112C35.681 14.92 35.9157 14.824 36.193 14.824C36.4597 14.824 36.6837 14.92 36.865 15.112C37.057 15.304 37.153 15.5387 37.153 15.816C37.153 16.0933 37.057 16.328 36.865 16.52C36.6837 16.712 36.4597 16.808 36.193 16.808ZM36.897 18.232V27H35.441V18.232H36.897ZM42.9945 18.088C43.7518 18.088 44.4132 18.2533 44.9785 18.584C45.5545 18.9147 45.9812 19.3307 46.2585 19.832V18.232H47.7305V27.192C47.7305 27.992 47.5598 28.7013 47.2185 29.32C46.8772 29.9493 46.3865 30.44 45.7465 30.792C45.1172 31.144 44.3812 31.32 43.5385 31.32C42.3865 31.32 41.4265 31.048 40.6585 30.504C39.8905 29.96 39.4372 29.2187 39.2985 28.28H40.7385C40.8985 28.8133 41.2292 29.24 41.7305 29.56C42.2318 29.8907 42.8345 30.056 43.5385 30.056C44.3385 30.056 44.9892 29.8053 45.4905 29.304C46.0025 28.8027 46.2585 28.0987 46.2585 27.192V25.352C45.9705 25.864 45.5438 26.2907 44.9785 26.632C44.4132 26.9733 43.7518 27.144 42.9945 27.144C42.2158 27.144 41.5065 26.952 40.8665 26.568C40.2372 26.184 39.7412 25.6453 39.3785 24.952C39.0158 24.2587 38.8345 23.4693 38.8345 22.584C38.8345 21.688 39.0158 20.904 39.3785 20.232C39.7412 19.5493 40.2372 19.0213 40.8665 18.648C41.5065 18.2747 42.2158 18.088 42.9945 18.088ZM46.2585 22.6C46.2585 21.9387 46.1252 21.3627 45.8585 20.872C45.5918 20.3813 45.2292 20.008 44.7705 19.752C44.3225 19.4853 43.8265 19.352 43.2825 19.352C42.7385 19.352 42.2425 19.48 41.7945 19.736C41.3465 19.992 40.9892 20.3653 40.7225 20.856C40.4558 21.3467 40.3225 21.9227 40.3225 22.584C40.3225 23.256 40.4558 23.8427 40.7225 24.344C40.9892 24.8347 41.3465 25.2133 41.7945 25.48C42.2425 25.736 42.7385 25.864 43.2825 25.864C43.8265 25.864 44.3225 25.736 44.7705 25.48C45.2292 25.2133 45.5918 24.8347 45.8585 24.344C46.1252 23.8427 46.2585 23.2613 46.2585 22.6ZM54.543 18.072C55.2043 18.072 55.8017 18.216 56.335 18.504C56.8683 18.7813 57.2843 19.2027 57.583 19.768C57.8923 20.3333 58.047 21.0213 58.047 21.832V27H56.607V22.04C56.607 21.1653 56.3883 20.4987 55.951 20.04C55.5137 19.5707 54.9163 19.336 54.159 19.336C53.391 19.336 52.7777 19.576 52.319 20.056C51.871 20.536 51.647 21.2347 51.647 22.152V27H50.191V15.16H51.647V19.48C51.935 19.032 52.3297 18.6853 52.831 18.44C53.343 18.1947 53.9137 18.072 54.543 18.072ZM62.2014 19.432V24.6C62.2014 25.0267 62.292 25.3307 62.4734 25.512C62.6547 25.6827 62.9694 25.768 63.4174 25.768H64.4894V27H63.1774C62.3667 27 61.7587 26.8133 61.3534 26.44C60.948 26.0667 60.7454 25.4533 60.7454 24.6V19.432H59.6094V18.232H60.7454V16.024H62.2014V18.232H64.4894V19.432H62.2014ZM81.8311 15.928V27H80.3751V18.744L76.6951 27H75.6711L71.9751 18.728V27H70.5191V15.928H72.0871L76.1831 25.08L80.2791 15.928H81.8311ZM88.1244 27.144C87.303 27.144 86.5564 26.9573 85.8844 26.584C85.223 26.2107 84.7004 25.6827 84.3164 25C83.943 24.3067 83.7564 23.5067 83.7564 22.6C83.7564 21.704 83.9484 20.9147 84.3324 20.232C84.727 19.5387 85.2604 19.0107 85.9324 18.648C86.6044 18.2747 87.3564 18.088 88.1884 18.088C89.0204 18.088 89.7724 18.2747 90.4444 18.648C91.1164 19.0107 91.6444 19.5333 92.0284 20.216C92.423 20.8987 92.6204 21.6933 92.6204 22.6C92.6204 23.5067 92.4177 24.3067 92.0124 25C91.6177 25.6827 91.079 26.2107 90.3964 26.584C89.7137 26.9573 88.9564 27.144 88.1244 27.144ZM88.1244 25.864C88.647 25.864 89.1377 25.7413 89.5964 25.496C90.055 25.2507 90.423 24.8827 90.7004 24.392C90.9884 23.9013 91.1324 23.304 91.1324 22.6C91.1324 21.896 90.9937 21.2987 90.7164 20.808C90.439 20.3173 90.0764 19.9547 89.6284 19.72C89.1804 19.4747 88.695 19.352 88.1724 19.352C87.639 19.352 87.1484 19.4747 86.7004 19.72C86.263 19.9547 85.911 20.3173 85.6444 20.808C85.3777 21.2987 85.2444 21.896 85.2444 22.6C85.2444 23.3147 85.3724 23.9173 85.6284 24.408C85.895 24.8987 86.247 25.2667 86.6844 25.512C87.1217 25.7467 87.6017 25.864 88.1244 25.864ZM93.9907 22.584C93.9907 21.688 94.1721 20.904 94.5347 20.232C94.8974 19.5493 95.3934 19.0213 96.0227 18.648C96.6627 18.2747 97.3774 18.088 98.1667 18.088C98.8494 18.088 99.4841 18.248 100.071 18.568C100.657 18.8773 101.105 19.288 101.415 19.8V15.16H102.887V27H101.415V25.352C101.127 25.8747 100.7 26.3067 100.135 26.648C99.5694 26.9787 98.9081 27.144 98.1507 27.144C97.3721 27.144 96.6627 26.952 96.0227 26.568C95.3934 26.184 94.8974 25.6453 94.5347 24.952C94.1721 24.2587 93.9907 23.4693 93.9907 22.584ZM101.415 22.6C101.415 21.9387 101.281 21.3627 101.015 20.872C100.748 20.3813 100.385 20.008 99.9267 19.752C99.4787 19.4853 98.9827 19.352 98.4387 19.352C97.8947 19.352 97.3987 19.48 96.9507 19.736C96.5027 19.992 96.1454 20.3653 95.8787 20.856C95.6121 21.3467 95.4787 21.9227 95.4787 22.584C95.4787 23.256 95.6121 23.8427 95.8787 24.344C96.1454 24.8347 96.5027 25.2133 96.9507 25.48C97.3987 25.736 97.8947 25.864 98.4387 25.864C98.9827 25.864 99.4787 25.736 99.9267 25.48C100.385 25.2133 100.748 24.8347 101.015 24.344C101.281 23.8427 101.415 23.2613 101.415 22.6ZM113.347 22.28C113.347 22.5573 113.331 22.8507 113.299 23.16H106.291C106.345 24.024 106.638 24.7013 107.171 25.192C107.715 25.672 108.371 25.912 109.139 25.912C109.769 25.912 110.291 25.768 110.707 25.48C111.134 25.1813 111.433 24.7867 111.603 24.296H113.171C112.937 25.1387 112.467 25.8267 111.763 26.36C111.059 26.8827 110.185 27.144 109.139 27.144C108.307 27.144 107.561 26.9573 106.899 26.584C106.249 26.2107 105.737 25.6827 105.363 25C104.99 24.3067 104.803 23.5067 104.803 22.6C104.803 21.6933 104.985 20.8987 105.347 20.216C105.71 19.5333 106.217 19.0107 106.867 18.648C107.529 18.2747 108.286 18.088 109.139 18.088C109.971 18.088 110.707 18.2693 111.347 18.632C111.987 18.9947 112.478 19.496 112.819 20.136C113.171 20.7653 113.347 21.48 113.347 22.28ZM111.843 21.976C111.843 21.4213 111.721 20.9467 111.475 20.552C111.23 20.1467 110.894 19.8427 110.467 19.64C110.051 19.4267 109.587 19.32 109.075 19.32C108.339 19.32 107.71 19.5547 107.187 20.024C106.675 20.4933 106.382 21.144 106.307 21.976H111.843Z" fill="#353535"/>
<defs>
<filter id="filter0_d_665_607" x="0" y="0" width="429" height="198" filterUnits="userSpaceOnUse" color-interpolation-filters="sRGB">
<feFlood flood-opacity="0" result="BackgroundImageFix"/>
<feColorMatrix in="SourceAlpha" type="matrix" values="0 0 0 0 0 0 0 0 0 0 0 0 0 0 0 0 0 0 127 0" result="hardAlpha"/>
<feOffset dy="4"/>
<feGaussianBlur stdDeviation="2"/>
<feComposite in2="hardAlpha" operator="out"/>
<feColorMatrix type="matrix" values="0 0 0 0 0 0 0 0 0 0 0 0 0 0 0 0 0 0 0.25 0"/>
<feBlend mode="normal" in2="BackgroundImageFix" result="effect1_dropShadow_665_607"/>
<feBlend mode="normal" in="SourceGraphic" in2="effect1_dropShadow_665_607" result="shape"/>
</filter>
</defs>
</svg>
