<svg width="27" height="24" viewBox="0 0 27 24" fill="none" xmlns="http://www.w3.org/2000/svg">
<path d="M10.9443 7.11111V4.55556C10.9443 3.87778 11.2136 3.22776 11.6928 2.7485C12.1721 2.26925 12.8221 2 13.4999 2H22.4443C23.1221 2 23.7721 2.26925 24.2514 2.7485C24.7306 3.22776 24.9999 3.87778 24.9999 4.55556V19.8889C24.9999 20.5667 24.7306 21.2167 24.2514 21.6959C23.7721 22.1752 23.1221 22.4444 22.4443 22.4444H13.4999C12.8221 22.4444 12.1721 22.1752 11.6928 21.6959C11.2136 21.2167 10.9443 20.5667 10.9443 19.8889V17.3333" stroke="white" stroke-width="3" stroke-linecap="round" stroke-linejoin="round"/>
<path d="M17.3333 12.222H2M2 12.222L5.83333 8.38867M2 12.222L5.83333 16.0553" stroke="white" stroke-width="3" stroke-linecap="round" stroke-linejoin="round"/>
</svg>
