<svg width="36" height="34" viewBox="0 0 36 34" fill="none" xmlns="http://www.w3.org/2000/svg">
<path fill-rule="evenodd" clip-rule="evenodd" d="M19.8 27.2C20.7548 27.2 21.6705 27.5582 22.3456 28.1958C23.0207 28.8335 23.4 29.6983 23.4 30.6C23.4 31.5017 23.0207 32.3665 22.3456 33.0042C21.6705 33.6418 20.7548 34 19.8 34C18.8452 34 17.9295 33.6418 17.2544 33.0042C16.5793 32.3665 16.2 31.5017 16.2 30.6C16.2 29.6983 16.5793 28.8335 17.2544 28.1958C17.9295 27.5582 18.8452 27.2 19.8 27.2ZM8.5338 22.1C9.72727 22.1 10.8719 22.5478 11.7158 23.3448C12.5597 24.1418 13.0338 25.2228 13.0338 26.35C13.0338 27.4772 12.5597 28.5582 11.7158 29.3552C10.8719 30.1522 9.72727 30.6 8.5338 30.6C7.34033 30.6 6.19573 30.1522 5.35182 29.3552C4.50791 28.5582 4.0338 27.4772 4.0338 26.35C4.0338 25.2228 4.50791 24.1418 5.35182 23.3448C6.19573 22.5478 7.34033 22.1 8.5338 22.1ZM29.3742 22.95C30.329 22.95 31.2447 23.3082 31.9198 23.9458C32.5949 24.5835 32.9742 25.4483 32.9742 26.35C32.9742 27.2517 32.5949 28.1165 31.9198 28.7542C31.2447 29.3918 30.329 29.75 29.3742 29.75C28.4194 29.75 27.5037 29.3918 26.8286 28.7542C26.1535 28.1165 25.7742 27.2517 25.7742 26.35C25.7742 25.4483 26.1535 24.5835 26.8286 23.9458C27.5037 23.3082 28.4194 22.95 29.3742 22.95ZM33.3 15.8423C34.0161 15.8423 34.7028 16.111 35.2092 16.5892C35.7155 17.0674 36 17.716 36 18.3923C36 19.0686 35.7155 19.7172 35.2092 20.1954C34.7028 20.6736 34.0161 20.9423 33.3 20.9423C32.5839 20.9423 31.8972 20.6736 31.3908 20.1954C30.8845 19.7172 30.6 19.0686 30.6 18.3923C30.6 17.716 30.8845 17.0674 31.3908 16.5892C31.8972 16.111 32.5839 15.8423 33.3 15.8423ZM4.5 10.2C5.69347 10.2 6.83807 10.6478 7.68198 11.4448C8.52589 12.2418 9 13.3228 9 14.45C9 15.5772 8.52589 16.6582 7.68198 17.4552C6.83807 18.2522 5.69347 18.7 4.5 18.7C3.30653 18.7 2.16193 18.2522 1.31802 17.4552C0.474106 16.6582 0 15.5772 0 14.45C0 13.3228 0.474106 12.2418 1.31802 11.4448C2.16193 10.6478 3.30653 10.2 4.5 10.2ZM32.0148 8.8519C32.4922 8.8519 32.95 9.03101 33.2876 9.34982C33.6252 9.66863 33.8148 10.101 33.8148 10.5519C33.8148 11.0028 33.6252 11.4352 33.2876 11.754C32.95 12.0728 32.4922 12.2519 32.0148 12.2519C31.5374 12.2519 31.0796 12.0728 30.742 11.754C30.4044 11.4352 30.2148 11.0028 30.2148 10.5519C30.2148 10.101 30.4044 9.66863 30.742 9.34982C31.0796 9.03101 31.5374 8.8519 32.0148 8.8519ZM14.4 0C15.8322 0 17.2057 0.53732 18.2184 1.49376C19.2311 2.45019 19.8 3.7474 19.8 5.1C19.8 6.4526 19.2311 7.74981 18.2184 8.70624C17.2057 9.66268 15.8322 10.2 14.4 10.2C12.9678 10.2 11.5943 9.66268 10.5816 8.70624C9.56893 7.74981 9 6.4526 9 5.1C9 3.7474 9.56893 2.45019 10.5816 1.49376C11.5943 0.53732 12.9678 0 14.4 0ZM27.9 5.1C28.1387 5.1 28.3676 5.18955 28.5364 5.34896C28.7052 5.50837 28.8 5.72457 28.8 5.95C28.8 6.17543 28.7052 6.39163 28.5364 6.55104C28.3676 6.71045 28.1387 6.8 27.9 6.8C27.6613 6.8 27.4324 6.71045 27.2636 6.55104C27.0948 6.39163 27 6.17543 27 5.95C27 5.72457 27.0948 5.50837 27.2636 5.34896C27.4324 5.18955 27.6613 5.1 27.9 5.1Z" fill="#3D729A"/>
</svg>
