<svg width="36" height="35" viewBox="0 0 36 35" fill="none" xmlns="http://www.w3.org/2000/svg">
<path d="M19.7588 0V3.54031C27.6804 4.48673 33.2923 11.4797 32.3179 19.1738C31.4878 25.5533 26.3271 30.6184 19.7588 31.3721V34.8773C29.6834 33.9134 36.9012 25.3605 35.9088 15.7211C35.0968 7.39609 28.2939 0.823736 19.7588 0ZM16.1499 0.0525788C12.6312 0.385578 9.27493 1.70005 6.53215 3.90836L9.11253 6.50225C11.1335 4.92489 13.5695 3.90836 16.1499 3.55784V0.0525788ZM3.98786 6.37957C1.73308 9.03974 0.344821 12.2917 0 15.7211H3.60892C3.95177 13.2323 4.96227 10.8663 6.56824 8.88583L3.98786 6.37957ZM0.0180446 19.2263C0.378937 22.6615 1.76837 25.9039 4.0059 28.5679L6.56824 26.0616C4.97462 24.0805 3.95873 21.7197 3.62697 19.2263H0.0180446ZM9.11253 28.638L6.53215 31.0391C9.26585 33.2516 12.612 34.6296 16.1499 35V31.4947C13.5829 31.1725 11.1522 30.1858 9.11253 28.638ZM18.8566 8.71057V17.9119L26.9767 22.5914L25.6233 24.7471L16.1499 19.2263V8.71057H18.8566Z" fill="#3D729A"/>
</svg>
