<svg width="28" height="28" viewBox="0 0 28 28" fill="none" xmlns="http://www.w3.org/2000/svg">
<path fill-rule="evenodd" clip-rule="evenodd" d="M0 4.66667C0 3.42899 0.491665 2.242 1.36684 1.36684C2.242 0.491665 3.42899 0 4.66667 0H23.3333C24.571 0 25.758 0.491665 26.6332 1.36684C27.5083 2.242 28 3.42899 28 4.66667V23.3333C28 24.571 27.5083 25.758 26.6332 26.6332C25.758 27.5083 24.571 28 23.3333 28H4.66667C3.42899 28 2.242 27.5083 1.36684 26.6332C0.491665 25.758 0 24.571 0 23.3333V4.66667ZM15.5556 7.77778C15.5556 7.36522 15.3917 6.96956 15.0999 6.67783C14.8082 6.38611 14.4126 6.22222 14 6.22222C13.5874 6.22222 13.1918 6.38611 12.9001 6.67783C12.6083 6.96956 12.4444 7.36522 12.4444 7.77778V20.2222C12.4444 20.6348 12.6083 21.0304 12.9001 21.3222C13.1918 21.6139 13.5874 21.7778 14 21.7778C14.4126 21.7778 14.8082 21.6139 15.0999 21.3222C15.3917 21.0304 15.5556 20.6348 15.5556 20.2222V7.77778ZM9.33333 12.4444C9.33333 12.0319 9.16945 11.6362 8.87772 11.3445C8.586 11.0528 8.19034 10.8889 7.77778 10.8889C7.36522 10.8889 6.96956 11.0528 6.67783 11.3445C6.38611 11.6362 6.22222 12.0319 6.22222 12.4444V20.2222C6.22222 20.6348 6.38611 21.0304 6.67783 21.3222C6.96956 21.6139 7.36522 21.7778 7.77778 21.7778C8.19034 21.7778 8.586 21.6139 8.87772 21.3222C9.16945 21.0304 9.33333 20.6348 9.33333 20.2222V12.4444ZM21.7778 17.1111C21.7778 16.6986 21.6139 16.3029 21.3222 16.0112C21.0304 15.7194 20.6348 15.5556 20.2222 15.5556C19.8097 15.5556 19.414 15.7194 19.1223 16.0112C18.8306 16.3029 18.6667 16.6986 18.6667 17.1111V20.2222C18.6667 20.6348 18.8306 21.0304 19.1223 21.3222C19.414 21.6139 19.8097 21.7778 20.2222 21.7778C20.6348 21.7778 21.0304 21.6139 21.3222 21.3222C21.6139 21.0304 21.7778 20.6348 21.7778 20.2222V17.1111Z" fill="white"/>
</svg>
