<svg width="28" height="30" viewBox="0 0 28 30" fill="none" xmlns="http://www.w3.org/2000/svg">
<path fill-rule="evenodd" clip-rule="evenodd" d="M16.6221 0.223999C16.0768 -6.58786e-08 15.3842 0 14.0004 0C12.6166 0 11.9255 -6.58786e-08 11.3787 0.223999C11.019 0.370992 10.6919 0.587676 10.4162 0.861582C10.1405 1.13549 9.92174 1.46121 9.77243 1.81999C9.63391 2.14862 9.58085 2.53325 9.55875 3.09178C9.54823 3.49631 9.43506 3.89152 9.22987 4.2403C9.02467 4.58908 8.73419 4.87998 8.3857 5.08567C8.03017 5.28329 7.6305 5.38799 7.22374 5.39005C6.81698 5.39211 6.41628 5.29147 6.05876 5.09746C5.56066 4.83514 5.19961 4.69072 4.84298 4.64356C4.06278 4.54177 3.2739 4.75143 2.64719 5.22714C2.17856 5.58377 1.83225 6.17914 1.14109 7.3684C0.448463 8.55766 0.103623 9.15155 0.0255175 9.73365C-0.07764 10.5088 0.13457 11.2928 0.614989 11.9132C0.833094 12.1962 1.14109 12.4334 1.61709 12.7311C2.32004 13.1688 2.77098 13.9145 2.77098 14.7368C2.77098 15.5591 2.32004 16.3048 1.61856 16.741C1.14109 17.0402 0.833094 17.2774 0.613515 17.5604C0.377088 17.8672 0.203463 18.2176 0.10257 18.5916C0.00167632 18.9656 -0.024507 19.3558 0.0255175 19.7399C0.103623 20.3206 0.448463 20.9159 1.14109 22.1052C1.83372 23.2944 2.17856 23.8883 2.64719 24.2464C3.27203 24.7224 4.06192 24.9317 4.84298 24.83C5.19961 24.7829 5.56066 24.6384 6.05876 24.3761C6.41646 24.1819 6.81743 24.0811 7.22448 24.0831C7.63153 24.0852 8.03146 24.19 8.38717 24.3879C9.10338 24.8005 9.5278 25.5595 9.55875 26.3818C9.58085 26.9418 9.63391 27.325 9.77243 27.6536C10.0731 28.3757 10.6507 28.9504 11.3787 29.2496C11.924 29.4736 12.6166 29.4736 14.0004 29.4736C15.3842 29.4736 16.0768 29.4736 16.6221 29.2496C16.9818 29.1026 17.309 28.8859 17.5846 28.612C17.8603 28.3381 18.0791 28.0124 18.2284 27.6536C18.3669 27.325 18.42 26.9418 18.4421 26.3818C18.4716 25.5595 18.8975 24.7991 19.6151 24.3879C19.9707 24.1903 20.3703 24.0856 20.7771 24.0835C21.1839 24.0815 21.5846 24.1821 21.9421 24.3761C22.4402 24.6384 22.8012 24.7829 23.1579 24.83C23.9389 24.9332 24.7288 24.7224 25.3536 24.2464C25.8223 23.8898 26.1686 23.2944 26.8597 22.1052C27.5524 20.9159 27.8972 20.322 27.9753 19.7399C28.0251 19.3557 27.9987 18.9655 27.8976 18.5915C27.7964 18.2175 27.6225 17.8671 27.3858 17.5604C27.1677 17.2774 26.8597 17.0402 26.3837 16.7425C25.6808 16.3048 25.2299 15.5591 25.2299 14.7368C25.2299 13.9145 25.6808 13.1688 26.3823 12.7326C26.8597 12.4334 27.1677 12.1962 27.3873 11.9132C27.6237 11.6064 27.7974 11.256 27.8983 10.882C27.9992 10.508 28.0253 10.1178 27.9753 9.73365C27.8972 9.15302 27.5524 8.55766 26.8597 7.3684C26.1671 6.17914 25.8223 5.58524 25.3536 5.22714C24.7269 4.75143 23.9381 4.54177 23.1579 4.64356C22.8012 4.69072 22.4402 4.83514 21.9421 5.09746C21.5844 5.29173 21.1834 5.39251 20.7764 5.39045C20.3693 5.38839 19.9694 5.28355 19.6137 5.08567C19.2655 4.8798 18.9753 4.58882 18.7703 4.24005C18.5654 3.89128 18.4525 3.49616 18.4421 3.09178C18.42 2.53178 18.3669 2.14862 18.2284 1.81999C18.0791 1.46121 17.8603 1.13549 17.5846 0.861582C17.309 0.587676 16.9818 0.370992 16.6221 0.223999ZM14.0004 19.1578C16.4615 19.1578 18.4554 17.1787 18.4554 14.7368C18.4554 12.2949 16.46 10.3158 14.0004 10.3158C11.5408 10.3158 9.54549 12.2949 9.54549 14.7368C9.54549 17.1787 11.5408 19.1578 14.0004 19.1578Z" fill="white"/>
</svg>
