<svg width="16" height="19" viewBox="0 0 16 19" fill="none" xmlns="http://www.w3.org/2000/svg">
<path d="M3.17317e-06 1.53705V17.4608C3.17317e-06 18.6751 1.37208 19.4128 2.42873 18.7519L15.2663 10.79C15.491 10.6514 15.6762 10.4596 15.8044 10.2326C15.9327 10.0055 16 9.75046 16 9.49124C16 9.23201 15.9327 8.977 15.8044 8.74992C15.6762 8.52283 15.491 8.33106 15.2663 8.19244L2.42873 0.245933C2.19085 0.0959857 1.91586 0.0113907 1.63276 0.00107189C1.34967 -0.00924688 1.06896 0.055093 0.820256 0.187304C0.571552 0.319516 0.364073 0.514696 0.219705 0.752256C0.0753375 0.989816 -0.0005656 1.26095 3.17317e-06 1.53705Z" fill="#3D729A"/>
</svg>
