<svg width="30" height="32" viewBox="0 0 30 32" fill="none" xmlns="http://www.w3.org/2000/svg">
<path d="M24.3154 16.3333C25.3792 16.3333 26.3974 16.5457 27.3548 16.905V9.8L18.2366 0H3.03943C1.35254 0 0 1.45367 0 3.26667V26.1333C0 26.9997 0.320224 27.8306 0.890227 28.4432C1.46023 29.0558 2.23332 29.4 3.03943 29.4H15.729C15.3947 28.371 15.1971 27.2767 15.1971 26.1333C15.1971 20.727 19.2852 16.3333 24.3154 16.3333ZM16.7168 2.45L25.0753 11.4333H16.7168V2.45ZM29.6344 23.275L22.4158 31.0333L18.2366 26.1333L19.9994 24.2387L22.4158 26.8357L27.8715 20.972L29.6344 23.275Z" fill="#3D729A"/>
</svg>
