<svg width="26" height="26" viewBox="0 0 26 26" fill="none" xmlns="http://www.w3.org/2000/svg">
<path d="M0 11.5556C0 6.10856 -1.72191e-07 3.38433 1.69289 1.69289C3.38578 0.00144434 6.10856 0 11.5556 0H14.4444C19.8914 0 22.6157 -1.72191e-07 24.3071 1.69289C25.9986 3.38578 26 6.10856 26 11.5556V14.4444C26 19.8914 26 22.6157 24.3071 24.3071C22.6142 25.9986 19.8914 26 14.4444 26H11.5556C6.10856 26 3.38433 26 1.69289 24.3071C0.00144434 22.6142 0 19.8914 0 14.4444V11.5556Z" fill="#E4E8EB"/>
<path d="M12.9999 15.8895C16.1909 15.8895 18.7777 13.3027 18.7777 10.1118C18.7777 6.92078 16.1909 4.33398 12.9999 4.33398C9.80897 4.33398 7.22217 6.92078 7.22217 10.1118C7.22217 13.3027 9.80897 15.8895 12.9999 15.8895Z" fill="#9C9C9C"/>
<path fill-rule="evenodd" clip-rule="evenodd" d="M23.0323 24.9217C23.0444 24.9958 23.031 25.072 22.9943 25.1375C22.9575 25.2031 22.8996 25.2543 22.83 25.2828C21.0953 26.0007 18.54 26.0007 14.4436 26.0007H11.5547C7.45971 26.0007 4.90304 26.0007 3.16827 25.2813C3.09895 25.2529 3.04126 25.202 3.00455 25.1367C2.96784 25.0714 2.95427 24.9956 2.96604 24.9217C3.58571 20.6447 7.84104 17.334 12.9992 17.334C18.1573 17.334 22.4126 20.6447 23.0323 24.9217Z" fill="#9C9C9C"/>
</svg>
