<svg width="28" height="25" viewBox="0 0 28 25" fill="none" xmlns="http://www.w3.org/2000/svg">
<path fill-rule="evenodd" clip-rule="evenodd" d="M15.4 0C15.7429 4.92351e-05 16.0739 0.137076 16.3301 0.38509C16.5864 0.633104 16.7501 0.974855 16.7902 1.34552L16.8 1.52381C16.8004 1.9122 16.937 2.28576 17.182 2.56818C17.4269 2.8506 17.7617 3.02055 18.118 3.04331C18.4742 3.06607 18.8249 2.93992 19.0986 2.69064C19.3722 2.44136 19.5481 2.08777 19.5902 1.7021L19.6 1.52381C19.6 1.11967 19.7475 0.732083 20.01 0.446314C20.2726 0.160544 20.6287 0 21 0H23.8C24.9139 0 25.9822 0.481631 26.7698 1.33894C27.5575 2.19625 28 3.35901 28 4.57143V19.8095C28 21.0219 27.5575 22.1847 26.7698 23.042C25.9822 23.8993 24.9139 24.381 23.8 24.381H21C20.6571 24.3809 20.3261 24.2439 20.0699 23.9959C19.8136 23.7478 19.6499 23.4061 19.6098 23.0354L19.6 22.8571C19.5996 22.4688 19.463 22.0952 19.218 21.8128C18.9731 21.5304 18.6383 21.3604 18.282 21.3376C17.9258 21.3149 17.5751 21.441 17.3014 21.6903C17.0278 21.9396 16.8519 22.2932 16.8098 22.6789L16.8 22.8571C16.8 23.2613 16.6525 23.6489 16.3899 23.9346C16.1274 24.2204 15.7713 24.381 15.4 24.381H4.2C3.08609 24.381 2.0178 23.8993 1.23015 23.042C0.442499 22.1847 0 21.0219 0 19.8095V4.57143C0 3.35901 0.442499 2.19625 1.23015 1.33894C2.0178 0.481631 3.08609 0 4.2 0H15.4ZM18.2 13.7143C17.8287 13.7143 17.4726 13.8748 17.2101 14.1606C16.9475 14.4464 16.8 14.834 16.8 15.2381V16.7619C16.8 17.166 16.9475 17.5536 17.2101 17.8394C17.4726 18.1252 17.8287 18.2857 18.2 18.2857C18.5713 18.2857 18.9274 18.1252 19.1899 17.8394C19.4525 17.5536 19.6 17.166 19.6 16.7619V15.2381C19.6 14.834 19.4525 14.4464 19.1899 14.1606C18.9274 13.8748 18.5713 13.7143 18.2 13.7143ZM18.2 6.09524C17.8571 6.09529 17.5261 6.23231 17.2699 6.48033C17.0136 6.72834 16.8499 7.07009 16.8098 7.44076L16.8 7.61905V9.14286C16.8004 9.53125 16.937 9.90481 17.182 10.1872C17.4269 10.4696 17.7617 10.6396 18.118 10.6624C18.4742 10.6851 18.8249 10.559 19.0986 10.3097C19.3722 10.0604 19.5481 9.70681 19.5902 9.32114L19.6 9.14286V7.61905C19.6 7.21491 19.4525 6.82732 19.1899 6.54155C18.9274 6.25578 18.5713 6.09524 18.2 6.09524Z" fill="white"/>
</svg>
