<svg width="41" height="40" viewBox="0 0 41 40" fill="none" xmlns="http://www.w3.org/2000/svg">
<path d="M14.4266 7.93632C14.875 7.30399 15.4896 6.77982 16.2703 6.36381C17.0676 5.93117 17.9728 5.71484 18.986 5.71484C20.1653 5.71484 21.2284 6.00605 22.1751 6.58846C23.1385 7.17087 23.8943 8.00288 24.4424 9.0845C25.0071 10.1495 25.2895 11.3892 25.2895 12.8036C25.2895 14.218 25.0071 15.4744 24.4424 16.5726C23.8943 17.6542 23.1385 18.4946 22.1751 19.0936C21.2284 19.6927 20.1653 19.9922 18.986 19.9922C17.9728 19.9922 17.0759 19.7842 16.2952 19.3682C15.5311 18.9522 14.9083 18.428 14.4266 17.7957V26.3571H10.9385V5.93949H14.4266V7.93632ZM21.7267 12.8036C21.7267 11.9716 21.5523 11.2561 21.2035 10.657C20.8713 10.0413 20.4228 9.57539 19.858 9.25922C19.3099 8.94306 18.712 8.78497 18.0642 8.78497C17.433 8.78497 16.835 8.95138 16.2703 9.28418C15.7222 9.60035 15.2737 10.0663 14.9249 10.682C14.5927 11.2977 14.4266 12.0215 14.4266 12.8535C14.4266 13.6855 14.5927 14.4094 14.9249 15.0251C15.2737 15.6408 15.7222 16.115 16.2703 16.4478C16.835 16.764 17.433 16.9221 18.0642 16.9221C18.712 16.9221 19.3099 16.7557 19.858 16.4229C20.4228 16.0901 20.8713 15.6158 21.2035 15.0001C21.5523 14.3844 21.7267 13.6523 21.7267 12.8036Z" fill="#3D729A"/>
<path d="M15.8135 27.5312C15.8135 26.1334 16.0875 24.8937 16.6357 23.8121C17.2004 22.7304 17.9645 21.8984 18.9279 21.316C19.8912 20.7336 20.9626 20.4424 22.1419 20.4424C23.0388 20.4424 23.8942 20.6421 24.7081 21.0415C25.522 21.4242 26.1698 21.94 26.6515 22.589V16.0244H30.1894V34.4951H26.6515V32.4484C26.2196 33.1306 25.6134 33.6797 24.8327 34.0957C24.052 34.5118 23.1468 34.7198 22.117 34.7198C20.9543 34.7198 19.8912 34.4202 18.9279 33.8212C17.9645 33.2221 17.2004 32.3818 16.6357 31.3002C16.0875 30.2019 15.8135 28.9456 15.8135 27.5312ZM26.6764 27.5811C26.6764 26.7324 26.5103 26.0086 26.1781 25.4095C25.8459 24.7938 25.3974 24.3279 24.8327 24.0117C24.268 23.6789 23.6617 23.5125 23.0139 23.5125C22.3661 23.5125 21.7682 23.6706 21.22 23.9868C20.6719 24.3029 20.2234 24.7689 19.8746 25.3846C19.5424 25.9836 19.3763 26.6991 19.3763 27.5312C19.3763 28.3632 19.5424 29.0953 19.8746 29.7277C20.2234 30.3434 20.6719 30.8176 21.22 31.1504C21.7848 31.4832 22.3827 31.6496 23.0139 31.6496C23.6617 31.6496 24.268 31.4915 24.8327 31.1754C25.3974 30.8426 25.8459 30.3766 26.1781 29.7776C26.5103 29.1619 26.6764 28.4297 26.6764 27.5811Z" stroke="#3D729A"/>
<rect x="1.45703" y="0.5" width="38.9272" height="39" rx="9.5" stroke="#3D729A"/>
</svg>
