<svg width="28" height="23" viewBox="0 0 28 23" fill="none" xmlns="http://www.w3.org/2000/svg">
<path fill-rule="evenodd" clip-rule="evenodd" d="M8.4 0.000702829C6.91479 0.000702829 5.49041 0.590701 4.4402 1.6409C3.39 2.69111 2.8 4.11549 2.8 5.6007C2.8 7.08592 3.39 8.5103 4.4402 9.5605C5.49041 10.6107 6.91479 11.2007 8.4 11.2007C9.88521 11.2007 11.3096 10.6107 12.3598 9.5605C13.41 8.5103 14 7.08592 14 5.6007C14 4.11549 13.41 2.69111 12.3598 1.6409C11.3096 0.590701 9.88521 0.000702829 8.4 0.000702829ZM5.6 12.6007C4.11479 12.6007 2.69041 13.1907 1.6402 14.2409C0.589998 15.2911 0 16.7155 0 18.2007V19.6007C0 20.3433 0.294999 21.0555 0.820101 21.5806C1.3452 22.1057 2.05739 22.4007 2.8 22.4007H14C14.7426 22.4007 15.4548 22.1057 15.9799 21.5806C16.505 21.0555 16.8 20.3433 16.8 19.6007V18.2007C16.8 16.7155 16.21 15.2911 15.1598 14.2409C14.1096 13.1907 12.6852 12.6007 11.2 12.6007H5.6ZM15.75 9.6677C16.4192 8.4637 16.8 7.0777 16.8 5.6007C16.8003 4.17752 16.439 2.77759 15.75 1.5323C16.5449 0.780124 17.5429 0.277359 18.6204 0.0861434C19.698 -0.105072 20.808 0.023643 21.8132 0.456381C22.8184 0.88912 23.6748 1.60691 24.2765 2.52105C24.8782 3.43519 25.1989 4.5056 25.1989 5.6C25.1989 6.6944 24.8782 7.76482 24.2765 8.67895C23.6748 9.59309 22.8184 10.3109 21.8132 10.7436C20.808 11.1764 19.698 11.3051 18.6204 11.1139C17.5429 10.9226 16.5449 10.4199 15.75 9.6677ZM18.8524 22.4007C19.3284 21.5775 19.6014 20.6213 19.6014 19.6007V18.2007C19.604 16.134 18.842 14.1393 17.4622 12.6007H22.4C23.8852 12.6007 25.3096 13.1907 26.3598 14.2409C27.41 15.2911 28 16.7155 28 18.2007V19.6007C28 20.3433 27.705 21.0555 27.1799 21.5806C26.6548 22.1057 25.9426 22.4007 25.2 22.4007H18.8524Z" fill="white"/>
</svg>
